# xmcd CD database file
#
# Track frame offsets:
#	150
#	3847
#	22212
#	23932
#	41700
#	43442
#	64147
#	65897
#	83880
#	86687
#	106720
#	107445
#	125375
#	127690
#	137890
#	139367
#	164497
#	166052
#	185857
#	187850
#	209920
#	212390
#	230237
#	232660
#	263552
#	266832
#
# Disc length: 3750 seconds
#
# Revision: 0
# Processed by: cddbd v1.4PL0 Copyright (c) Steve Scherf et al.
# Submitted via: CDex 1.50beta10
#
DISCID=7b0ea41a
DTITLE=Western Union - Bunte Tränen
DYEAR=1994
DGENRE=Country
TTITLE0=Vorwort 1
TTITLE1=Wieder unterwegs
TTITLE2=Vorwort 3
TTITLE3=Lach mal wieder
TTITLE4=Vorwort 5
TTITLE5=Das Lied allein für Dich
TTITLE6=Vorwort 7
TTITLE7=Aber ich glaub an Dich
TTITLE8=Vorwort 9
TTITLE9=Traktormann
TTITLE10=Vorwort 11
TTITLE11=Helden seh ich viele, jeden Tag
TTITLE12=Vorwort 13
TTITLE13=Lepp´s Pinball
TTITLE14=Vorwort 15
TTITLE15=Tausend Feuer
TTITLE16=Vorwort 17
TTITLE17=Asphaltdesperados
TTITLE18=Vorwort 19
TTITLE19=Lied ohne Namen
TTITLE20=Vorwort 21
TTITLE21=Du bist der Grund dafür
TTITLE22=Vorwort 23
TTITLE23=Bunte Tränen
TTITLE24=Vorwort25
TTITLE25=es muß Liebe sein
EXTD=YEAR: 1994
EXTT0=
EXTT1=
EXTT2=
EXTT3=
EXTT4=
EXTT5=
EXTT6=
EXTT7=
EXTT8=
EXTT9=
EXTT10=
EXTT11=
EXTT12=
EXTT13=
EXTT14=
EXTT15=
EXTT16=
EXTT17=
EXTT18=
EXTT19=
EXTT20=
EXTT21=
EXTT22=
EXTT23=
EXTT24=
EXTT25=
PLAYORDER=
